# xmcd CD database file
#
# Track frame offsets:
#	150
#	6511
#	23194
#	42350
#	56407
#	75941
#	95028
#	114353
#	134806
#	150381
#	170432
#
# Disc length: 2552 seconds
#
# Revision: 2
# Processed by: cddbd v1.5.1PL0 Copyright (c) Steve Scherf et al.
# Submitted via: CDex 1.51
#
DISCID=8509f60b
DTITLE=小森　まなみ - Ride On Wave
DYEAR=2005
DGENRE=JPop
TTITLE0=Overture
TTITLE1=Horizon
TTITLE2=Ride On Wave
TTITLE3=ミルフィーユ
TTITLE4=空色ジュエル
TTITLE5=願いよ届け　風になれ
TTITLE6=Dream Chaser
TTITLE7=風花
TTITLE8=四季風はっぴぃばーすでぃ
TTITLE9=アイノホシ〜Love The Earth〜
TTITLE10=君に逢えてボクはボクになる
EXTD=YEAR: 2005
EXTT0=
EXTT1=
EXTT2=
EXTT3=
EXTT4=
EXTT5=
EXTT6=
EXTT7=
EXTT8=
EXTT9=
EXTT10=
PLAYORDER=
